<svg xmlns="http://www.w3.org/2000/svg" viewBox="0 0 1099 374" width="1099" height="374"><g fill="#fff" stroke="#fff"><path fill="none" stroke-width="19" d="M9 25l139-14 138 14v255l-138 82L9 280V25z"/><path fill="none" stroke-width="14" d="M11 144l132-77 142 77v8l-137 81-137-81z"/><path stroke="none" d="M148 225l20-13-20-13v-13l32 19 10-6-42-25v-15l54 33 11-6-65-40v-14l88 54v57l-88 53-89-53v-15l89 54v-14l-89-53v-13l89 52z"/></g><g fill="#fff"><path d="M453.18 273a20.06 20.06 0 0 0 5.64-1.06v13.58a33 33 0 0 1-12 2.12c-7.76 0-13.93-3-16.93-9.88-8.29 6.7-18.69 10.93-31.92 10.93-15.34 0-29.62-8.46-29.62-25.92 0-21.69 20.1-28.39 37.74-28.39a112.47 112.47 0 0 1 22 2.47v-3c0-10.58-7.76-18-22.22-18a75.39 75.39 0 0 0-30.51 6.52v-17.3a103.69 103.69 0 0 1 32.45-5.64c24 0 39.15 11.46 39.15 37v30.37c0 4.76 2.82 6.17 6.17 6.17m-65.37-11.47c0 8.29 7.41 12.52 15.87 12.52A34.43 34.43 0 0 0 428.14 264v-14.31a98.74 98.74 0 0 0-18.34-2.12c-10.76 0-22 3.35-22 13.93M513.31 199.43c9.52 0 18.69 2.11 26.1 6.52v17.28c-6.18-4.41-14.81-7.05-23.46-7.05-15 0-30.16 7.94-30.16 27.86 0 19.22 14.64 27.86 29.8 27.86a50.9 50.9 0 0 0 24.69-6.52v17.45c-8.11 3.88-17.28 5.82-28 5.82-22.57 0-45.67-13.75-45.67-43.91 0-31.57 24.16-45.32 46.73-45.32M636.93 273a20.06 20.06 0 0 0 5.64-1.06v13.58a33 33 0 0 1-12 2.12c-7.76 0-13.93-3-16.93-9.88-8.29 6.7-18.69 10.93-31.92 10.93-15.34 0-29.62-8.46-29.62-25.92 0-21.69 20.1-28.39 37.74-28.39a112.47 112.47 0 0 1 22 2.47v-3c0-10.58-7.76-18-22.22-18a75.39 75.39 0 0 0-30.51 6.52v-17.3a103.71 103.71 0 0 1 32.45-5.64c24 0 39.15 11.46 39.15 37v30.37c0 4.76 2.82 6.17 6.17 6.17m-65.37-11.47c0 8.29 7.41 12.52 15.87 12.52A34.43 34.43 0 0 0 611.89 264v-14.31a98.74 98.74 0 0 0-18.34-2.12c-10.76 0-22 3.35-22 13.93M741.68 162.93v123.44h-16.93V273c-6.52 8.29-16.57 15.69-32.45 15.69-25.57 0-42-20.28-42-44.61s16.4-44.61 42-44.61c14.81 0 24.69 6.52 30.51 13.23v-49.77h18.87zm-46 53.08c-15.17 0-26.28 11.46-26.28 28s11.11 28 26.28 28a29.43 29.43 0 0 0 27-17.81v-20.56a29.57 29.57 0 0 0-27-17.63M802.87 199.43c33.68 0 45.32 27.16 39.85 51.66h-63.65c2.12 15.17 16.93 21.52 32.45 21.52a62 62 0 0 0 26.81-6v16.22c-7.76 3.71-18.52 5.82-30.33 5.82-25.92 0-48-14.81-48-44.61 0-30.68 23.28-44.61 42.85-44.61m.88 15.69c-12.7 0-24.16 7.58-24.87 21.87h46.94c1.06-7.41-3.53-21.87-22-21.87M861.95 286.37v-84.64h16.75v10.57c4.59-5.11 14.46-12.87 28.22-12.87 12.7 0 21.51 5.29 26.45 13.58 7.41-7.41 17.28-13.58 29.63-13.58 22.39 0 32.09 16.57 32.09 34v52.9h-18.87V234c0-10.93-6.52-17.81-16.75-17.81-9.35 0-16.58 6.17-21 11.46.17 1.94.35 3.88.35 5.82v52.9H920V234c0-10.93-6.53-17.81-16.75-17.81s-18 7.4-22.4 13v57.14h-18.9zM1078.33 201.72h19.75l-39.68 96.11c-9.17 22-21.16 29.45-34 29.45a47.91 47.91 0 0 1-11.11-1.41v-16a29.24 29.24 0 0 0 8.64 1.24c9.17 0 16-6.53 21-19.75l1.76-4.23-40.21-85.35h20.1l28.57 63.84zM393.31 14.72v48.14a38.54 38.54 0 0 1 27.33-11.64c21.34 0 34.92 14.46 34.92 34.56v52.38h-18.87v-49.9c0-13.76-8.46-20.28-19.75-20.28-10.76 0-18.87 7.23-23.63 14.11v56.08h-18.87V14.72h18.87zM507.23 23.36v30.16h30.68v16.57h-30.68v38.79c0 11.11 5.11 14.81 16 14.81a45.55 45.55 0 0 0 17.11-3.35v16.22a69.13 69.13 0 0 1-22.75 3.7c-16.4 0-29.1-8.11-29.1-27.86V70.09h-15.11V53.52h15.17V27.95zM562.07 138.16V53.52h16.75V64.1C583.4 59 593.28 51.23 607 51.23c12.7 0 21.52 5.29 26.45 13.58 7.41-7.41 17.28-13.58 29.63-13.58 22.39 0 32.09 16.57 32.09 34v52.9h-18.83V85.79c0-10.93-6.53-17.81-16.75-17.81-9.35 0-16.58 6.17-21 11.46.18 1.94.35 3.88.35 5.82v52.9h-18.85V85.79c0-10.93-6.52-17.81-16.75-17.81s-18 7.4-22.4 13v57.13h-18.87zM722.81 14.72h18.87v123.44h-18.87z"/></g></svg>
